<svg role="icon" width="6px" height="10px"   xmlns="http://www.w3.org/2000/svg" xmlns:xlink="http://www.w3.org/1999/xlink"
        aria-hidden="true"  >
        <path d="M5.9948 4.91639C5.97504 4.75602 5.89893 4.60611 5.77818 4.49246L1.28152 0.208491C1.14026 0.0746171 0.94925 -0.0006913 0.749448 4.84641e-06C0.550377 0.000702243 0.359363 0.0767038 0.218842 0.211276C0.0783215 0.345848 4.77467e-06 0.527825 4.77694e-06 0.718176C0.000737201 0.907831 0.0805125 1.08981 0.221766 1.22368L4.18557 5L0.221766 8.77632C0.0805126 8.91019 0.000735868 9.09217 4.87906e-06 9.28182C-0.000726587 9.47217 0.0783163 9.65415 0.218842 9.78872C0.359368 9.92329 0.550377 9.9993 0.749448 10C0.948519 10.0007 1.14026 9.92539 1.28152 9.79151L5.77818 5.50754C5.94212 5.35275 6.02189 5.13452 5.9948 4.91627L5.9948 4.91639Z" >
        </path>
    </svg>